<svg width="46" height="39" viewBox="0 0 46 39" fill="none" xmlns="http://www.w3.org/2000/svg">
<path d="M22.8358 18.0045C28.268 18.0045 32.6716 13.2421 32.6716 7.36738C32.6716 4.73503 31.3776 2.32604 29.8478 0.468729C29.5982 0.165752 29.2222 0 28.8296 0H16.842C16.4495 0 16.0734 0.165752 15.8238 0.468729C14.294 2.32604 13 4.73503 13 7.36738C13 13.2421 17.4036 18.0045 22.8358 18.0045Z" fill="white"/>
<path fill-rule="evenodd" clip-rule="evenodd" d="M22.8358 16.6311C27.4101 16.6311 31.2982 12.5869 31.2982 7.36738C31.2982 5.19284 30.226 3.09781 28.8135 1.37345H16.8581C15.4456 3.09781 14.3735 5.19284 14.3735 7.36738C14.3735 12.5869 18.2615 16.6311 22.8358 16.6311ZM32.6716 7.36738C32.6716 13.2421 28.268 18.0045 22.8358 18.0045C17.4036 18.0045 13 13.2421 13 7.36738C13 4.73503 14.294 2.32604 15.8238 0.468729C16.0734 0.165752 16.4495 0 16.842 0H28.8296C29.2222 0 29.5982 0.165752 29.8478 0.468729C31.3776 2.32604 32.6716 4.73503 32.6716 7.36738Z" fill="currentColor"/>
<path fill-rule="evenodd" clip-rule="evenodd" d="M22.8391 7.53018C22.6706 7.53018 22.5341 7.66673 22.5341 7.83518C22.5341 8.00363 22.6706 8.14018 22.8391 8.14018C23.0075 8.14018 23.1441 8.00363 23.1441 7.83518C23.1441 7.66673 23.0075 7.53018 22.8391 7.53018ZM22.8391 10.0024C24.036 10.0024 25.0063 9.0321 25.0063 7.83518C25.0063 6.63826 24.036 5.66797 22.8391 5.66797C21.6422 5.66797 20.6719 6.63826 20.6719 7.83518C20.6719 9.0321 21.6422 10.0024 22.8391 10.0024Z" fill="currentColor"/>
<path fill-rule="evenodd" clip-rule="evenodd" d="M17.5032 7.53018C17.3347 7.53018 17.1981 7.66673 17.1981 7.83518C17.1981 8.00363 17.3347 8.14018 17.5032 8.14018C17.6716 8.14018 17.8082 8.00363 17.8082 7.83518C17.8082 7.66673 17.6716 7.53018 17.5032 7.53018ZM17.5032 10.0024C18.7001 10.0024 19.6704 9.0321 19.6704 7.83518C19.6704 6.63826 18.7001 5.66797 17.5032 5.66797C16.3062 5.66797 15.3359 6.63826 15.3359 7.83518C15.3359 9.0321 16.3062 10.0024 17.5032 10.0024Z" fill="currentColor"/>
<path fill-rule="evenodd" clip-rule="evenodd" d="M28.175 7.53018C28.0066 7.53018 27.87 7.66673 27.87 7.83518C27.87 8.00363 28.0066 8.14018 28.175 8.14018C28.3435 8.14018 28.48 8.00363 28.48 7.83518C28.48 7.66673 28.3435 7.53018 28.175 7.53018ZM28.175 10.0024C29.3719 10.0024 30.3422 9.0321 30.3422 7.83518C30.3422 6.63826 29.3719 5.66797 28.175 5.66797C26.9781 5.66797 26.0078 6.63826 26.0078 7.83518C26.0078 9.0321 26.9781 10.0024 28.175 10.0024Z" fill="currentColor"/>
<path fill-rule="evenodd" clip-rule="evenodd" d="M20.1672 12.1981C19.9988 12.1981 19.8622 12.3347 19.8622 12.5032C19.8622 12.6716 19.9988 12.8082 20.1672 12.8082C20.3357 12.8082 20.4722 12.6716 20.4722 12.5032C20.4722 12.3347 20.3357 12.1981 20.1672 12.1981ZM20.1672 14.6704C21.3641 14.6704 22.3344 13.7001 22.3344 12.5032C22.3344 11.3062 21.3641 10.3359 20.1672 10.3359C18.9703 10.3359 18 11.3062 18 12.5032C18 13.7001 18.9703 14.6704 20.1672 14.6704Z" fill="currentColor"/>
<path fill-rule="evenodd" clip-rule="evenodd" d="M25.5032 12.1981C25.3347 12.1981 25.1981 12.3347 25.1981 12.5032C25.1981 12.6716 25.3347 12.8082 25.5032 12.8082C25.6716 12.8082 25.8082 12.6716 25.8082 12.5032C25.8082 12.3347 25.6716 12.1981 25.5032 12.1981ZM25.5032 14.6704C26.7001 14.6704 27.6704 13.7001 27.6704 12.5032C27.6704 11.3062 26.7001 10.3359 25.5032 10.3359C24.3062 10.3359 23.3359 11.3062 23.3359 12.5032C23.3359 13.7001 24.3062 14.6704 25.5032 14.6704Z" fill="currentColor"/>
<path fill-rule="evenodd" clip-rule="evenodd" d="M20.2334 5.187C20.7967 5.187 21.2534 4.73034 21.2534 4.16702C21.2534 3.6037 20.7967 3.14704 20.2334 3.14704C19.6701 3.14704 19.2134 3.6037 19.2134 4.16702C19.2134 4.73034 19.6701 5.187 20.2334 5.187ZM20.2334 5.73638C21.1002 5.73638 21.8028 5.03375 21.8028 4.16702C21.8028 3.30028 21.1002 2.59766 20.2334 2.59766C19.3667 2.59766 18.6641 3.30028 18.6641 4.16702C18.6641 5.03375 19.3667 5.73638 20.2334 5.73638Z" fill="currentColor"/>
<path fill-rule="evenodd" clip-rule="evenodd" d="M25.374 5.187C25.9374 5.187 26.394 4.73034 26.394 4.16702C26.394 3.6037 25.9374 3.14704 25.374 3.14704C24.8107 3.14704 24.3541 3.6037 24.3541 4.16702C24.3541 4.73034 24.8107 5.187 25.374 5.187ZM25.374 5.73638C26.2408 5.73638 26.9434 5.03375 26.9434 4.16702C26.9434 3.30028 26.2408 2.59766 25.374 2.59766C24.5073 2.59766 23.8047 3.30028 23.8047 4.16702C23.8047 5.03375 24.5073 5.73638 25.374 5.73638Z" fill="currentColor"/>
<path d="M13 23.0463C13 20.5894 14.9917 18.5977 17.4487 18.5977H28.223C30.6799 18.5977 32.6716 20.5894 32.6716 23.0463C32.6716 25.5033 30.6799 27.495 28.2229 27.495H17.4487C14.9917 27.495 13 25.5033 13 23.0463Z" fill="white"/>
<path fill-rule="evenodd" clip-rule="evenodd" d="M28.223 19.1863H17.4487C15.3168 19.1863 13.5886 20.9145 13.5886 23.0463C13.5886 25.1782 15.3168 26.9064 17.4487 26.9064H28.2229C30.3548 26.9064 32.083 25.1782 32.083 23.0463C32.083 20.9145 30.3548 19.1863 28.223 19.1863ZM17.4487 18.5977C14.9917 18.5977 13 20.5894 13 23.0463C13 25.5033 14.9917 27.495 17.4487 27.495H28.2229C30.6799 27.495 32.6716 25.5033 32.6716 23.0463C32.6716 20.5894 30.6799 18.5977 28.223 18.5977H17.4487Z" fill="currentColor"/>
<path fill-rule="evenodd" clip-rule="evenodd" d="M17.5033 24.4478C18.2774 24.4478 18.9049 23.8203 18.9049 23.0463C18.9049 22.2723 18.2774 21.6448 17.5033 21.6448C16.7293 21.6448 16.1018 22.2723 16.1018 23.0463C16.1018 23.8203 16.7293 24.4478 17.5033 24.4478ZM17.5033 26.2137C19.2526 26.2137 20.6707 24.7956 20.6707 23.0463C20.6707 21.297 19.2526 19.8789 17.5033 19.8789C15.754 19.8789 14.3359 21.297 14.3359 23.0463C14.3359 24.7956 15.754 26.2137 17.5033 26.2137Z" fill="currentColor"/>
<path fill-rule="evenodd" clip-rule="evenodd" d="M28.1674 24.4478C28.9414 24.4478 29.5689 23.8203 29.5689 23.0463C29.5689 22.2723 28.9414 21.6448 28.1674 21.6448C27.3934 21.6448 26.7659 22.2723 26.7659 23.0463C26.7659 23.8203 27.3934 24.4478 28.1674 24.4478ZM28.1674 26.2137C29.9167 26.2137 31.3348 24.7956 31.3348 23.0463C31.3348 21.297 29.9167 19.8789 28.1674 19.8789C26.4181 19.8789 25 21.297 25 23.0463C25 24.7956 26.4181 26.2137 28.1674 26.2137Z" fill="currentColor"/>
<path d="M15.3886 37.3974C14.9615 37.3974 14.5624 37.3215 14.1915 37.1698C13.8205 37.0124 13.4945 36.796 13.2135 36.5206C12.9325 36.2396 12.7133 35.9164 12.5559 35.5511C12.4041 35.1801 12.3283 34.7811 12.3283 34.3539C12.3283 33.9268 12.4041 33.5305 12.5559 33.1652C12.7133 32.7942 12.9325 32.471 13.2135 32.1956C13.4945 31.9146 13.8205 31.6982 14.1915 31.5465C14.5624 31.3891 14.9615 31.3104 15.3886 31.3104C15.6978 31.3104 15.9928 31.3498 16.2739 31.4284C16.5605 31.5015 16.8247 31.6111 17.0664 31.7572C17.3137 31.8978 17.5329 32.072 17.724 32.2799L17.294 32.7352C17.0635 32.471 16.7797 32.2687 16.4425 32.1282C16.1053 31.9821 15.754 31.909 15.3886 31.909C15.0458 31.909 14.7282 31.9708 14.436 32.0945C14.1437 32.2181 13.888 32.3924 13.6688 32.6172C13.4552 32.8364 13.2866 33.0949 13.1629 33.3928C13.0449 33.6851 12.9859 34.0054 12.9859 34.3539C12.9859 34.6968 13.0449 35.0171 13.1629 35.315C13.2866 35.6129 13.458 35.8743 13.6772 36.0991C13.8964 36.3183 14.1521 36.4897 14.4444 36.6134C14.7423 36.737 15.0626 36.7988 15.4055 36.7988C15.7708 36.7988 16.1193 36.7286 16.4509 36.5881C16.7825 36.4419 17.0607 36.2424 17.2856 35.9895L17.7071 36.4279C17.5104 36.6302 17.2884 36.8045 17.0411 36.9506C16.7994 37.0967 16.538 37.2091 16.257 37.2878C15.976 37.3609 15.6865 37.3974 15.3886 37.3974ZM21.3495 37.3974C20.9223 37.3974 20.5232 37.3215 20.1523 37.1698C19.7813 37.0124 19.4553 36.796 19.1743 36.5206C18.8933 36.2396 18.6741 35.9164 18.5167 35.5511C18.365 35.1801 18.2891 34.7811 18.2891 34.3539C18.2891 33.9268 18.365 33.5305 18.5167 33.1652C18.6741 32.7942 18.8933 32.471 19.1743 32.1956C19.4553 31.9146 19.7813 31.6982 20.1523 31.5465C20.5232 31.3891 20.9223 31.3104 21.3495 31.3104C21.6586 31.3104 21.9537 31.3498 22.2347 31.4284C22.5213 31.5015 22.7855 31.6111 23.0272 31.7572C23.2745 31.8978 23.4937 32.072 23.6848 32.2799L23.2548 32.7352C23.0244 32.471 22.7405 32.2687 22.4033 32.1282C22.0661 31.9821 21.7148 31.909 21.3495 31.909C21.0066 31.909 20.689 31.9708 20.3968 32.0945C20.1045 32.2181 19.8488 32.3924 19.6296 32.6172C19.416 32.8364 19.2474 33.0949 19.1237 33.3928C19.0057 33.6851 18.9467 34.0054 18.9467 34.3539C18.9467 34.6968 19.0057 35.0171 19.1237 35.315C19.2474 35.6129 19.4188 35.8743 19.638 36.0991C19.8572 36.3183 20.1129 36.4897 20.4052 36.6134C20.7031 36.737 21.0235 36.7988 21.3663 36.7988C21.7316 36.7988 22.0801 36.7286 22.4117 36.5881C22.7433 36.4419 23.0216 36.2424 23.2464 35.9895L23.6679 36.4279C23.4712 36.6302 23.2492 36.8045 23.0019 36.9506C22.7602 37.0967 22.4988 37.2091 22.2178 37.2878C21.9368 37.3609 21.6473 37.3974 21.3495 37.3974ZM26.6477 37.389C26.1812 37.389 25.7344 37.2963 25.3072 37.1108C24.8801 36.9197 24.5035 36.6471 24.1775 36.293L24.6075 35.8462C24.911 36.1722 25.2342 36.4166 25.577 36.5796C25.9255 36.7426 26.2908 36.8241 26.673 36.8241C26.9822 36.8241 27.2547 36.7764 27.4908 36.6808C27.7325 36.5796 27.9208 36.4419 28.0557 36.2677C28.1906 36.0878 28.258 35.8855 28.258 35.6607C28.258 35.3572 28.1512 35.1239 27.9376 34.9609C27.7297 34.7979 27.384 34.6771 26.9007 34.5984L26.0491 34.4635C25.4815 34.368 25.0627 34.1994 24.793 33.9577C24.5232 33.716 24.3883 33.3872 24.3883 32.9713C24.3883 32.6453 24.4754 32.3586 24.6496 32.1113C24.8239 31.864 25.0656 31.6729 25.3747 31.538C25.6894 31.3975 26.052 31.3273 26.4623 31.3273C26.8782 31.3273 27.2857 31.3947 27.6847 31.5296C28.0894 31.6645 28.4575 31.8584 28.7891 32.1113L28.4182 32.6172C27.7718 32.1282 27.1114 31.8837 26.437 31.8837C26.1559 31.8837 25.9086 31.9287 25.6951 32.0186C25.4815 32.1029 25.3157 32.2237 25.1976 32.3811C25.0796 32.5329 25.0206 32.7127 25.0206 32.9207C25.0206 33.1961 25.1133 33.4069 25.2988 33.553C25.4843 33.6991 25.7906 33.8059 26.2178 33.8734L27.0608 34.0083C27.7072 34.115 28.1765 34.2977 28.4688 34.5563C28.761 34.8092 28.9072 35.1661 28.9072 35.627C28.9072 35.9698 28.8116 36.2761 28.6205 36.5459C28.4294 36.8101 28.1625 37.018 27.8196 37.1698C27.4824 37.3159 27.0918 37.389 26.6477 37.389ZM29.5531 37.3047V36.8579L31.9137 34.278C32.0991 34.0757 32.2425 33.8987 32.3436 33.7469C32.4504 33.5895 32.5235 33.4434 32.5628 33.3085C32.6078 33.1736 32.6303 33.0303 32.6303 32.8785C32.6303 32.5806 32.5123 32.3362 32.2762 32.1451C32.0458 31.9483 31.7507 31.85 31.391 31.85C31.1156 31.85 30.8598 31.9034 30.6238 32.0102C30.3877 32.117 30.1235 32.3024 29.8313 32.5666L29.4772 32.1451C29.7863 31.864 30.0982 31.6561 30.413 31.5212C30.7277 31.3807 31.0565 31.3104 31.3994 31.3104C31.7535 31.3104 32.0682 31.3779 32.3436 31.5127C32.619 31.642 32.8354 31.8219 32.9928 32.0523C33.1502 32.2828 33.2289 32.5469 33.2289 32.8448C33.2289 33.0415 33.2036 33.2242 33.153 33.3928C33.1024 33.5558 33.0125 33.7329 32.8832 33.9239C32.7539 34.1094 32.5685 34.3342 32.3268 34.5984L30.3118 36.782L33.3553 36.7735V37.3047H29.5531Z" fill="currentColor"/>
</svg>
