<svg width="46" height="39" viewBox="0 0 46 39" fill="none" xmlns="http://www.w3.org/2000/svg">
<path fill-rule="evenodd" clip-rule="evenodd" d="M19.4092 15.5258C20.418 15.5258 21.2358 14.708 21.2358 13.6992C21.2358 12.6903 20.418 11.8725 19.4092 11.8725C18.4003 11.8725 17.5825 12.6903 17.5825 13.6992C17.5825 14.708 18.4003 15.5258 19.4092 15.5258ZM19.4092 16.5094C20.9612 16.5094 22.2194 15.2512 22.2194 13.6992C22.2194 12.1471 20.9612 10.8889 19.4092 10.8889C17.8571 10.8889 16.5989 12.1471 16.5989 13.6992C16.5989 15.2512 17.8571 16.5094 19.4092 16.5094Z" fill="#D83A41"/>
<path fill-rule="evenodd" clip-rule="evenodd" d="M26.2627 15.5258C27.2715 15.5258 28.0893 14.708 28.0893 13.6992C28.0893 12.6903 27.2715 11.8725 26.2627 11.8725C25.2538 11.8725 24.436 12.6903 24.436 13.6992C24.436 14.708 25.2538 15.5258 26.2627 15.5258ZM26.2627 16.5094C27.8147 16.5094 29.0729 15.2512 29.0729 13.6992C29.0729 12.1471 27.8147 10.8889 26.2627 10.8889C24.7106 10.8889 23.4524 12.1471 23.4524 13.6992C23.4524 15.2512 24.7106 16.5094 26.2627 16.5094Z" fill="#D83A41"/>
<path fill-rule="evenodd" clip-rule="evenodd" d="M22.3391 9.29495L21.5457 8.50159L22.0425 8.0048L22.8359 8.79816L23.6293 8.0048L24.126 8.50159L23.3327 9.29495L24.126 10.0883L23.6293 10.5851L22.8359 9.79173L22.0425 10.5851L21.5457 10.0883L22.3391 9.29495Z" fill="#D83A41"/>
<path fill-rule="evenodd" clip-rule="evenodd" d="M22.3391 18.1007L21.5457 17.3073L22.0425 16.8105L22.8359 17.6039L23.6293 16.8105L24.126 17.3073L23.3327 18.1007L24.126 18.894L23.6293 19.3908L22.8359 18.5975L22.0425 19.3908L21.5457 18.894L22.3391 18.1007Z" fill="#D83A41"/>
<path fill-rule="evenodd" clip-rule="evenodd" d="M19.4092 16.5094C20.9612 16.5094 22.2194 15.2512 22.2194 13.6992C22.2194 12.1471 20.9612 10.8889 19.4092 10.8889C17.8571 10.8889 16.5989 12.1471 16.5989 13.6992C16.5989 15.2512 17.8571 16.5094 19.4092 16.5094ZM26.2627 16.5094C27.8147 16.5094 29.0729 15.2512 29.0729 13.6992C29.0729 12.1471 27.8147 10.8889 26.2627 10.8889C24.7106 10.8889 23.4524 12.1471 23.4524 13.6992C23.4524 15.2512 24.7106 16.5094 26.2627 16.5094ZM22.3391 9.29495L21.5457 8.50159L22.0425 8.0048L22.8359 8.79816L23.6293 8.0048L24.126 8.50159L23.3327 9.29495L24.126 10.0883L23.6293 10.5851L22.8359 9.79173L22.0425 10.5851L21.5457 10.0883L22.3391 9.29495ZM22.3391 18.1007L21.5457 17.3073L22.0425 16.8105L22.8359 17.6039L23.6293 16.8105L24.126 17.3073L23.3327 18.1007L24.126 18.894L23.6293 19.3908L22.8359 18.5975L22.0425 19.3908L21.5457 18.894L22.3391 18.1007ZM28.0893 13.6992C28.0893 14.708 27.2715 15.5258 26.2627 15.5258C25.2538 15.5258 24.436 14.708 24.436 13.6992C24.436 12.6903 25.2538 11.8725 26.2627 11.8725C27.2715 11.8725 28.0893 12.6903 28.0893 13.6992ZM19.4092 15.5258C20.418 15.5258 21.2358 14.708 21.2358 13.6992C21.2358 12.6903 20.418 11.8725 19.4092 11.8725C18.4003 11.8725 17.5825 12.6903 17.5825 13.6992C17.5825 14.708 18.4003 15.5258 19.4092 15.5258Z" fill="#D83A41"/>
<path fill-rule="evenodd" clip-rule="evenodd" d="M32.6718 13.6992C32.6718 19.1314 28.2681 23.5351 22.8359 23.5351C17.4037 23.5351 13 19.1314 13 13.6992C13 8.26696 17.4037 3.86328 22.8359 3.86328C28.2681 3.86328 32.6718 8.26696 32.6718 13.6992ZM22.8359 21.8958C27.3627 21.8958 31.0325 18.226 31.0325 13.6992C31.0325 9.17233 27.3627 5.5026 22.8359 5.5026C18.3091 5.5026 14.6393 9.17233 14.6393 13.6992C14.6393 18.226 18.3091 21.8958 22.8359 21.8958Z" fill="#D83A41"/>
<path d="M6.52562 33.4384C6.09847 33.4384 5.69941 33.3626 5.32846 33.2108C4.9575 33.0534 4.63151 32.837 4.35049 32.5616C4.06946 32.2806 3.85026 31.9574 3.69289 31.5921C3.54113 31.2211 3.46526 30.8221 3.46526 30.3949C3.46526 29.9678 3.54113 29.5715 3.69289 29.2062C3.85026 28.8352 4.06946 28.5121 4.35049 28.2367C4.63151 27.9556 4.9575 27.7392 5.32846 27.5875C5.69941 27.4301 6.09847 27.3514 6.52562 27.3514C6.83475 27.3514 7.12983 27.3908 7.41086 27.4695C7.6975 27.5425 7.96167 27.6521 8.20335 27.7983C8.45065 27.9388 8.66985 28.113 8.86095 28.321L8.43098 28.7762C8.20054 28.5121 7.9167 28.3097 7.57947 28.1692C7.24224 28.0231 6.89096 27.95 6.52562 27.95C6.18277 27.95 5.86521 28.0118 5.57295 28.1355C5.28068 28.2591 5.02495 28.4334 4.80575 28.6582C4.59217 28.8774 4.42355 29.1359 4.2999 29.4338C4.18187 29.7261 4.12286 30.0465 4.12286 30.3949C4.12286 30.7378 4.18187 31.0582 4.2999 31.356C4.42355 31.6539 4.59498 31.9153 4.81418 32.1401C5.03338 32.3593 5.28911 32.5307 5.58138 32.6544C5.87927 32.778 6.19963 32.8399 6.54249 32.8399C6.90782 32.8399 7.25629 32.7696 7.5879 32.6291C7.91951 32.483 8.19773 32.2834 8.42255 32.0305L8.84409 32.4689C8.64737 32.6712 8.42536 32.8455 8.17806 32.9916C7.93637 33.1377 7.67502 33.2502 7.39399 33.3288C7.11297 33.4019 6.82351 33.4384 6.52562 33.4384ZM9.82778 33.3457V27.4442H10.477V30.083H13.9083V27.4442H14.5574V33.3457H13.9083V30.6647H10.477V33.3457H9.82778ZM15.239 33.3457L17.6839 27.4442H18.468L20.8961 33.3457H20.1879L19.446 31.4909H16.6638L15.9135 33.3457H15.239ZM16.8915 30.9345H19.2183L18.0549 28.0427L16.8915 30.9345ZM23.1751 33.4131C22.7816 33.4131 22.4219 33.3176 22.0959 33.1265C21.7756 32.9298 21.5198 32.6684 21.3287 32.3424C21.1433 32.0108 21.0505 31.6399 21.0505 31.2296C21.0505 30.8193 21.1433 30.4511 21.3287 30.1251C21.5198 29.7992 21.7756 29.5406 22.0959 29.3495C22.4219 29.1528 22.7845 29.0544 23.1835 29.0544C23.4308 29.0544 23.6697 29.0966 23.9001 29.1809C24.1306 29.2596 24.3413 29.3776 24.5324 29.535V27.4442L25.1563 27.3008V33.3457H24.5409V32.8989C24.1699 33.2417 23.7146 33.4131 23.1751 33.4131ZM23.2341 32.8651C23.4983 32.8651 23.7427 32.8146 23.9676 32.7134C24.198 32.6066 24.3863 32.4605 24.5324 32.275V30.1842C24.3863 30.0043 24.198 29.8638 23.9676 29.7626C23.7427 29.6558 23.4983 29.6024 23.2341 29.6024C22.9418 29.6024 22.6749 29.6727 22.4332 29.8132C22.1971 29.9537 22.0088 30.1476 21.8683 30.3949C21.7334 30.6366 21.666 30.912 21.666 31.2211C21.666 31.5303 21.7334 31.8085 21.8683 32.0558C22.0088 32.3031 22.1971 32.4998 22.4332 32.6459C22.6749 32.7921 22.9418 32.8651 23.2341 32.8651ZM28.1985 33.4216C27.7938 33.4216 27.4257 33.326 27.0941 33.1349C26.7681 32.9382 26.5067 32.6741 26.31 32.3424C26.1189 32.0108 26.0234 31.6399 26.0234 31.2296C26.0234 30.8249 26.1161 30.4596 26.3016 30.1336C26.4871 29.802 26.7372 29.5406 27.0519 29.3495C27.3667 29.1528 27.7179 29.0544 28.1058 29.0544C28.4823 29.0544 28.8196 29.1528 29.1175 29.3495C29.421 29.5406 29.6598 29.802 29.8341 30.1336C30.0139 30.4596 30.1039 30.8249 30.1039 31.2296V31.4235H26.6388C26.6725 31.6989 26.7596 31.9462 26.9002 32.1654C27.0463 32.3846 27.2346 32.5588 27.465 32.6881C27.6955 32.8118 27.9484 32.8736 28.2238 32.8736C28.443 32.8736 28.6566 32.8399 28.8645 32.7724C29.0725 32.705 29.2467 32.6094 29.3872 32.4858L29.7751 32.8989C29.539 33.0731 29.2917 33.2052 29.0331 33.2951C28.7802 33.3794 28.502 33.4216 28.1985 33.4216ZM26.6557 30.9261H29.48C29.4463 30.6731 29.3619 30.4483 29.2271 30.2516C29.0978 30.0493 28.9348 29.8919 28.7381 29.7795C28.5413 29.6615 28.325 29.6024 28.0889 29.6024C27.8472 29.6024 27.6252 29.6586 27.4229 29.7711C27.2205 29.8835 27.0519 30.0408 26.917 30.2432C26.7821 30.4399 26.695 30.6675 26.6557 30.9261ZM31.0941 33.3457V27.4442H32.0046L34.0195 31.6343L36.0261 27.4442H36.9366V33.3457H36.3211V28.1861L34.0111 32.9242L31.7011 28.1945V33.3457H31.0941ZM40.0786 33.43C39.6795 33.43 39.3142 33.3345 38.9826 33.1434C38.6566 32.9466 38.398 32.6825 38.2069 32.3509C38.0158 32.0193 37.9203 31.6483 37.9203 31.238C37.9203 30.8277 38.0158 30.4568 38.2069 30.1251C38.398 29.7935 38.6566 29.5322 38.9826 29.3411C39.3142 29.1444 39.6795 29.046 40.0786 29.046C40.4832 29.046 40.8486 29.1444 41.1746 29.3411C41.5006 29.5322 41.7591 29.7935 41.9502 30.1251C42.1413 30.4568 42.2368 30.8277 42.2368 31.238C42.2368 31.6483 42.1413 32.0193 41.9502 32.3509C41.7591 32.6825 41.5006 32.9466 41.1746 33.1434C40.8486 33.3345 40.4832 33.43 40.0786 33.43ZM40.0786 32.8736C40.3652 32.8736 40.6238 32.8005 40.8542 32.6544C41.0903 32.5082 41.2757 32.3115 41.4106 32.0642C41.5511 31.8169 41.6214 31.5415 41.6214 31.238C41.6214 30.9289 41.5511 30.6535 41.4106 30.4118C41.2757 30.1645 41.0903 29.9678 40.8542 29.8216C40.6238 29.6755 40.3652 29.6024 40.0786 29.6024C39.7919 29.6024 39.5306 29.6755 39.2945 29.8216C39.0641 29.9678 38.8786 30.1645 38.7381 30.4118C38.6032 30.6535 38.5357 30.9289 38.5357 31.238C38.5357 31.5415 38.6032 31.8169 38.7381 32.0642C38.8786 32.3115 39.0641 32.5082 39.2945 32.6544C39.5306 32.8005 39.7919 32.8736 40.0786 32.8736Z" fill="#D83A41"/>
</svg>
