<svg width="46" height="39" viewBox="0 0 46 39" fill="none" xmlns="http://www.w3.org/2000/svg">
<path d="M22.8359 22.702C28.2681 22.702 32.6718 17.9395 32.6718 12.0647C32.6718 9.47589 31.4202 7.10311 29.9237 5.25865C29.6285 4.89483 29.1788 4.69727 28.7103 4.69727H16.9615C16.493 4.69727 16.0433 4.89484 15.7481 5.25865C14.2516 7.10311 13 9.47589 13 12.0647C13 17.9395 17.4037 22.702 22.8359 22.702Z" fill="white"/>
<path fill-rule="evenodd" clip-rule="evenodd" d="M22.8359 21.0626C27.2442 21.0626 31.0325 17.1574 31.0325 12.0647C31.0325 10.0167 30.0406 8.01832 28.6871 6.33658H16.9847C15.6312 8.01832 14.6393 10.0167 14.6393 12.0647C14.6393 17.1574 18.4276 21.0626 22.8359 21.0626ZM32.6718 12.0647C32.6718 17.9395 28.2681 22.702 22.8359 22.702C17.4037 22.702 13 17.9395 13 12.0647C13 9.47589 14.2516 7.10311 15.7481 5.25865C16.0433 4.89484 16.493 4.69727 16.9615 4.69727H28.7103C29.1788 4.69727 29.6285 4.89483 29.9237 5.25865C31.4202 7.10311 32.6718 9.47589 32.6718 12.0647Z" fill="currentColor"/>
<path fill-rule="evenodd" clip-rule="evenodd" d="M22.8391 11.7489C22.4064 11.7489 22.0556 12.0997 22.0556 12.5325C22.0556 12.9652 22.4064 13.316 22.8391 13.316C23.2718 13.316 23.6226 12.9652 23.6226 12.5325C23.6226 12.0997 23.2718 11.7489 22.8391 11.7489ZM22.8391 14.6997C24.036 14.6997 25.0063 13.7294 25.0063 12.5325C25.0063 11.3355 24.036 10.3652 22.8391 10.3652C21.6422 10.3652 20.6719 11.3355 20.6719 12.5325C20.6719 13.7294 21.6422 14.6997 22.8391 14.6997Z" fill="currentColor"/>
<path fill-rule="evenodd" clip-rule="evenodd" d="M17.5032 11.7489C17.0704 11.7489 16.7196 12.0997 16.7196 12.5325C16.7196 12.9652 17.0704 13.316 17.5032 13.316C17.9359 13.316 18.2867 12.9652 18.2867 12.5325C18.2867 12.0997 17.9359 11.7489 17.5032 11.7489ZM17.5032 14.6997C18.7001 14.6997 19.6704 13.7294 19.6704 12.5325C19.6704 11.3355 18.7001 10.3652 17.5032 10.3652C16.3062 10.3652 15.3359 11.3355 15.3359 12.5325C15.3359 13.7294 16.3062 14.6997 17.5032 14.6997Z" fill="currentColor"/>
<path fill-rule="evenodd" clip-rule="evenodd" d="M28.175 11.7489C27.7423 11.7489 27.3915 12.0997 27.3915 12.5325C27.3915 12.9652 27.7423 13.316 28.175 13.316C28.6078 13.316 28.9586 12.9652 28.9586 12.5325C28.9586 12.0997 28.6078 11.7489 28.175 11.7489ZM28.175 14.6997C29.372 14.6997 30.3423 13.7294 30.3423 12.5325C30.3423 11.3355 29.372 10.3652 28.175 10.3652C26.9781 10.3652 26.0078 11.3355 26.0078 12.5325C26.0078 13.7294 26.9781 14.6997 28.175 14.6997Z" fill="currentColor"/>
<path fill-rule="evenodd" clip-rule="evenodd" d="M20.1672 16.4169C19.7345 16.4169 19.3837 16.7677 19.3837 17.2004C19.3837 17.6332 19.7345 17.984 20.1672 17.984C20.6 17.984 20.9508 17.6332 20.9508 17.2004C20.9508 16.7677 20.6 16.4169 20.1672 16.4169ZM20.1672 19.3677C21.3642 19.3677 22.3345 18.3974 22.3345 17.2004C22.3345 16.0035 21.3642 15.0332 20.1672 15.0332C18.9703 15.0332 18 16.0035 18 17.2004C18 18.3974 18.9703 19.3677 20.1672 19.3677Z" fill="currentColor"/>
<path fill-rule="evenodd" clip-rule="evenodd" d="M25.5032 16.4169C25.0704 16.4169 24.7196 16.7677 24.7196 17.2004C24.7196 17.6332 25.0704 17.984 25.5032 17.984C25.9359 17.984 26.2867 17.6332 26.2867 17.2004C26.2867 16.7677 25.9359 16.4169 25.5032 16.4169ZM25.5032 19.3677C26.7001 19.3677 27.6704 18.3974 27.6704 17.2004C27.6704 16.0035 26.7001 15.0332 25.5032 15.0332C24.3062 15.0332 23.3359 16.0035 23.3359 17.2004C23.3359 18.3974 24.3062 19.3677 25.5032 19.3677Z" fill="currentColor"/>
<path fill-rule="evenodd" clip-rule="evenodd" d="M20.2412 9.77794C20.7458 9.77794 21.1549 9.36889 21.1549 8.8643C21.1549 8.3597 20.7458 7.95065 20.2412 7.95065C19.7367 7.95065 19.3276 8.3597 19.3276 8.8643C19.3276 9.36889 19.7367 9.77794 20.2412 9.77794ZM20.2412 10.4337C21.108 10.4337 21.8106 9.73104 21.8106 8.8643C21.8106 7.99755 21.108 7.29492 20.2412 7.29492C19.3745 7.29492 18.6719 7.99755 18.6719 8.8643C18.6719 9.73104 19.3745 10.4337 20.2412 10.4337Z" fill="currentColor"/>
<path fill-rule="evenodd" clip-rule="evenodd" d="M25.3819 9.77794C25.8865 9.77794 26.2955 9.36889 26.2955 8.8643C26.2955 8.3597 25.8865 7.95065 25.3819 7.95065C24.8773 7.95065 24.4682 8.3597 24.4682 8.8643C24.4682 9.36889 24.8773 9.77794 25.3819 9.77794ZM25.3819 10.4337C26.2486 10.4337 26.9512 9.73104 26.9512 8.8643C26.9512 7.99755 26.2486 7.29492 25.3819 7.29492C24.5151 7.29492 23.8125 7.99755 23.8125 8.8643C23.8125 9.73104 24.5151 10.4337 25.3819 10.4337Z" fill="currentColor"/>
<path d="M12.8875 32.5117V27.1919H10.7545V26.6102H15.6697V27.1919H13.5367V32.5117H12.8875ZM16.0205 34.3159C15.9418 34.3159 15.866 34.3103 15.7929 34.299C15.7254 34.2934 15.6692 34.285 15.6243 34.2737V33.7089C15.7198 33.7314 15.8378 33.7426 15.9784 33.7426C16.3493 33.7426 16.6303 33.5234 16.8214 33.085L17.0744 32.5033L15.3545 28.2879H16.0458L17.4116 31.7529L18.887 28.2879H19.5614L17.4537 33.1693C17.3357 33.4391 17.2093 33.6583 17.0744 33.8269C16.9395 33.9955 16.7849 34.1192 16.6107 34.1979C16.4421 34.2766 16.2453 34.3159 16.0205 34.3159ZM20.1412 34.2316V28.2879H20.7566V28.7432C21.122 28.3947 21.5772 28.2205 22.1224 28.2205C22.5215 28.2205 22.8812 28.3188 23.2016 28.5155C23.5219 28.7066 23.7748 28.9652 23.9603 29.2912C24.1514 29.6172 24.247 29.9853 24.247 30.3956C24.247 30.8059 24.1514 31.1768 23.9603 31.5085C23.7748 31.8344 23.5219 32.0958 23.2016 32.2925C22.8812 32.4836 22.5187 32.5792 22.114 32.5792C21.8667 32.5792 21.6278 32.537 21.3974 32.4527C21.1669 32.3684 20.9562 32.2476 20.7651 32.0902V34.2316H20.1412ZM22.0634 32.0312C22.3613 32.0312 22.6283 31.9609 22.8643 31.8204C23.1004 31.6743 23.2859 31.4804 23.4208 31.2387C23.5613 30.9914 23.6315 30.7132 23.6315 30.404C23.6315 30.0949 23.5613 29.8167 23.4208 29.5694C23.2859 29.3221 23.1004 29.1282 22.8643 28.9877C22.6283 28.8415 22.3613 28.7685 22.0634 28.7685C21.7992 28.7685 21.5519 28.8219 21.3215 28.9286C21.0967 29.0298 20.9112 29.1731 20.7651 29.3586V31.4494C20.9112 31.6293 21.0995 31.7726 21.3299 31.8794C21.5604 31.9806 21.8049 32.0312 22.0634 32.0312ZM27.0953 32.5876C26.6906 32.5876 26.3224 32.492 25.9908 32.3009C25.6648 32.1042 25.4035 31.8401 25.2068 31.5085C25.0157 31.1768 24.9201 30.8059 24.9201 30.3956C24.9201 29.9909 25.0129 29.6256 25.1983 29.2996C25.3838 28.968 25.6339 28.7066 25.9487 28.5155C26.2634 28.3188 26.6147 28.2205 27.0025 28.2205C27.3791 28.2205 27.7163 28.3188 28.0142 28.5155C28.3177 28.7066 28.5566 28.968 28.7308 29.2996C28.9107 29.6256 29.0006 29.9909 29.0006 30.3956V30.5895H25.5356C25.5693 30.8649 25.6564 31.1122 25.7969 31.3314C25.943 31.5506 26.1313 31.7248 26.3618 31.8541C26.5922 31.9778 26.8451 32.0396 27.1205 32.0396C27.3397 32.0396 27.5533 32.0059 27.7613 31.9384C27.9692 31.871 28.1435 31.7754 28.284 31.6518L28.6718 32.0649C28.4357 32.2391 28.1884 32.3712 27.9299 32.4611C27.677 32.5454 27.3988 32.5876 27.0953 32.5876ZM25.5524 30.0921H28.3767C28.343 29.8392 28.2587 29.6143 28.1238 29.4176C27.9945 29.2153 27.8315 29.0579 27.6348 28.9455C27.4381 28.8275 27.2217 28.7685 26.9857 28.7685C26.744 28.7685 26.522 28.8247 26.3196 28.9371C26.1173 29.0495 25.9487 29.2069 25.8138 29.4092C25.6789 29.6059 25.5918 29.8335 25.5524 30.0921ZM31.8021 32.5117V26.6102H32.4513V32.5117H31.8021ZM33.7534 32.5117V26.6102H34.4026V32.5117H33.7534Z" fill="currentColor"/>
</svg>
